<svg width="35" height="32" viewBox="0 0 35 32" fill="none" xmlns="http://www.w3.org/2000/svg">
	<path d="M18.6104 0.745117C18.6226 0.757421 18.6348 0.776754 18.6488 0.778512C19.1746 0.82421 19.6933 0.915606 20.2104 1.02106C22.7554 1.54659 25.0226 2.65213 27.0191 4.3166C28.4078 5.47487 29.5519 6.84581 30.4655 8.41009C30.5004 8.46985 30.5371 8.48742 30.6034 8.48742C31.7214 8.48567 32.8393 8.48567 33.9572 8.48567C33.9921 8.48567 34.0253 8.48567 34.0725 8.48567C33.9886 8.70713 33.9083 8.91628 33.8297 9.12544C33.648 9.60351 33.4646 10.0798 33.2882 10.5597C33.2585 10.6387 33.22 10.6563 33.1432 10.6563C27.7405 10.6546 22.3379 10.6546 16.9335 10.6546C15.461 10.6546 13.9868 10.6546 12.5143 10.6546C11.6846 10.6546 10.9387 11.159 10.6418 11.9359C9.93085 13.7937 9.22692 15.6532 8.52124 17.511C8.5125 17.5321 8.50726 17.555 8.49678 17.5831C12.9562 17.5831 17.4104 17.5831 21.875 17.5831C21.8366 17.6868 21.8017 17.7817 21.7667 17.8766C21.5396 18.4742 21.3126 19.0718 21.0872 19.6711C21.0645 19.7327 21.0348 19.7538 20.9685 19.7538C16.523 19.752 12.0776 19.7538 7.63215 19.752C6.74656 19.752 6.04612 18.9909 6.08105 18.0805C6.08804 17.9118 6.12297 17.7518 6.18236 17.5954C7.07145 15.263 7.94482 12.9219 8.85312 10.5983C9.32299 9.39435 10.2418 8.7124 11.5116 8.51379C11.6619 8.49094 11.8173 8.48391 11.9693 8.48391C17.1222 8.48215 22.275 8.48215 27.4279 8.48215C27.4646 8.48215 27.503 8.48215 27.5606 8.48215C26.3868 6.91611 24.9615 5.66996 23.2567 4.75073C21.1536 3.61706 18.9056 3.10033 16.5248 3.19875C13.8505 3.30948 11.4278 4.16896 9.27932 5.77718C7.12909 7.38715 5.6007 9.46993 4.7186 12.0185C3.83824 14.5582 3.7579 17.1367 4.43563 19.745C3.57973 19.745 2.73606 19.745 1.88016 19.745C1.83824 19.5323 1.79107 19.3214 1.75789 19.107C1.70024 18.7449 1.64784 18.3811 1.60243 18.019C1.57448 17.7993 1.56749 17.5761 1.54478 17.3546C1.49413 16.8414 1.5116 16.3282 1.51334 15.8132C1.51509 15.5706 1.54304 15.3263 1.56225 15.0838C1.57797 14.8658 1.5902 14.6479 1.61815 14.4334C1.65483 14.1593 1.70199 13.8868 1.74915 13.6144C1.9902 12.2276 2.41466 10.9006 3.01379 9.62988C3.70375 8.16754 4.59807 6.84405 5.69677 5.66117C7.00333 4.25332 8.51949 3.12845 10.2383 2.28128C11.2985 1.75399 12.406 1.34974 13.5623 1.09313C14.0374 0.987668 14.5195 0.915606 14.9999 0.832998C15.1414 0.808391 15.2863 0.797846 15.4296 0.778512C15.4435 0.776754 15.454 0.755663 15.4645 0.745117C16.5143 0.745117 17.5623 0.745117 18.6104 0.745117Z" fill="#FA7B48" />
	<path d="M29.7527 13.1453C29.7982 13.1453 29.8313 13.1453 29.8663 13.1453C30.6383 13.1453 31.4086 13.1471 32.1807 13.1436C32.2611 13.1436 32.2942 13.1629 32.3117 13.249C32.441 13.9081 32.5423 14.5707 32.5772 15.2404C32.6052 15.7659 32.6139 16.2932 32.5982 16.8205C32.5353 19.0245 32.0287 21.1214 31.0838 23.111C30.4113 24.5259 29.5466 25.8125 28.4846 26.9619C26.6715 28.9252 24.4986 30.3313 21.9798 31.1978C20.9667 31.5458 19.9256 31.7778 18.8601 31.8938C18.5387 31.929 18.2173 31.9641 17.8959 31.9764C17.4295 31.994 16.9597 32.0098 16.4933 31.9923C13.0155 31.8534 9.92033 30.6811 7.21464 28.477C5.79804 27.3223 4.63472 25.946 3.69672 24.3747C3.67401 24.3361 3.66703 24.2869 3.64781 24.2236C2.46353 24.2236 1.25828 24.2236 0.0390625 24.2236C0.103692 24.0496 0.163081 23.8914 0.222469 23.735C0.41985 23.2129 0.620725 22.6909 0.814612 22.1672C0.846053 22.081 0.887975 22.0512 0.982298 22.0512C8.29587 22.0529 15.6077 22.0529 22.9213 22.0529C23.0942 22.0529 23.0523 22.0793 23.1117 21.9246C23.9379 19.7557 24.7623 17.5851 25.5868 15.4162C25.5973 15.3898 25.606 15.3617 25.62 15.323C21.1344 15.323 16.6557 15.323 12.1614 15.323C12.1754 15.2826 12.1824 15.2562 12.1911 15.2316C12.4426 14.5672 12.6959 13.9028 12.9457 13.2385C12.9701 13.1734 12.9998 13.1506 13.0714 13.1506C17.5204 13.1523 21.9676 13.1506 26.4165 13.1523C27.2165 13.1523 27.8523 13.6849 28.0008 14.467C28.0567 14.7623 28.0235 15.0506 27.9169 15.33C27.0628 17.5798 26.2191 19.833 25.3475 22.074C24.8794 23.278 23.9745 23.974 22.7082 24.1919C22.5632 24.2165 22.413 24.2236 22.2645 24.2236C17.0889 24.2253 11.9116 24.2253 6.73604 24.2253C6.69237 24.2253 6.6487 24.2253 6.58582 24.2253C6.61027 24.2622 6.6225 24.2869 6.63997 24.3079C7.82076 25.867 9.2723 27.1043 10.9981 28.0165C12.2016 28.6528 13.4732 29.0939 14.8147 29.3224C15.3265 29.4103 15.847 29.4613 16.3658 29.5017C16.771 29.5333 17.1798 29.5421 17.585 29.521C18.4252 29.4771 19.2566 29.3699 20.0776 29.173C21.5833 28.8092 22.9842 28.2046 24.2732 27.3416C26.1457 26.0849 27.6112 24.4573 28.6593 22.4501C29.3527 21.1214 29.8051 19.7135 30.006 18.2248C30.0672 17.7678 30.0934 17.3056 30.1265 16.8451C30.144 16.6008 30.1475 16.3547 30.1423 16.1087C30.1231 15.1314 30.0043 14.1665 29.7737 13.2156C29.7632 13.1928 29.7597 13.1787 29.7527 13.1453Z" fill="#4650A9" />
</svg>
	