<svg width="28" height="28" viewBox="0 0 28 28" fill="none" xmlns="http://www.w3.org/2000/svg">
<path d="M14 2C7.3856 2 2 7.3808 2 14C2 20.6192 7.3808 26 14 26C20.6144 26 26 20.6192 26 14C26 7.3808 20.6144 2 14 2ZM14 25.04C7.9136 25.04 2.96 20.0864 2.96 14C2.96 7.9136 7.9136 2.96 14 2.96C20.0864 2.96 25.04 7.9136 25.04 14C25.04 20.0864 20.0864 25.04 14 25.04Z" fill="white"/>
<path d="M18.5208 13.4909H14.5091V9.47931C14.5091 9.19931 14.28 8.97021 14 8.97021C13.72 8.97021 13.4909 9.19931 13.4909 9.47931V13.4909H9.47931C9.19931 13.4909 8.97021 13.72 8.97021 14C8.97021 14.28 9.19931 14.5091 9.47931 14.5091H13.4909V18.5208C13.4909 18.8008 13.72 19.0298 14 19.0298C14.28 19.0298 14.5091 18.8008 14.5091 18.5208V14.5091H18.5208C18.8008 14.5091 19.0298 14.28 19.0298 14C19.0298 13.72 18.8008 13.4909 18.5208 13.4909Z" fill="white"/>
</svg>
