<svg width="28" height="28" viewBox="0 0 28 28" fill="none" xmlns="http://www.w3.org/2000/svg">
<path d="M24.9375 13.5625V6.5625C24.9375 6.09837 24.7531 5.65325 24.4249 5.32506C24.0967 4.99687 23.6516 4.8125 23.1875 4.8125H4.8125C4.34837 4.8125 3.90325 4.99687 3.57506 5.32506C3.24687 5.65325 3.0625 6.09837 3.0625 6.5625V21.4375C3.0625 21.9016 3.24687 22.3467 3.57506 22.6749C3.90325 23.0031 4.34837 23.1875 4.8125 23.1875H15.3125" stroke="white" stroke-linecap="round" stroke-linejoin="round"/>
<path d="M3.0625 8.3125H24.9375" stroke="white" stroke-linecap="round" stroke-linejoin="round"/>
<path d="M21.4376 14.5249C22.4093 14.725 23.2841 15.2494 23.9185 16.012C24.5529 16.7746 24.9094 17.7302 24.9293 18.7221C24.9492 19.7139 24.6315 20.683 24.0282 21.4705C23.4249 22.2581 22.5719 22.8172 21.6091 23.0561C20.6463 23.2951 19.6309 23.1998 18.7294 22.7858C17.8278 22.3718 17.0938 21.6637 16.6476 20.7776C16.2015 19.8916 16.0697 18.8803 16.2739 17.9095C16.478 16.9387 17.0061 16.0661 17.7714 15.4349" stroke="white" stroke-linecap="round" stroke-linejoin="round"/>
<path d="M17.9375 17.0625V15.3125H16.1875" stroke="white" stroke-linecap="round" stroke-linejoin="round"/>
</svg>
