<svg width="95" height="27" viewBox="0 0 95 27" fill="none" xmlns="http://www.w3.org/2000/svg">
    <path fill-rule="evenodd" clip-rule="evenodd" d="M0 13.3995V13.6465C1.65981 15.1047 5.07315 18.7307 6.63074 20.3196L12.3922 26.2328C12.6522 26.5591 12.892 26.9779 13.4492 27C13.4718 26.7735 15.7675 24.3936 16.0818 24.0736C18.3628 21.7511 17.5715 22.2234 19.605 22.3448C22.0252 22.4893 24.2265 21.7693 26.0636 20.4335L27.5466 19.0623C27.4295 18.7279 26.3091 17.8556 25.9945 17.5698L24.3417 16.1823C23.9221 16.3676 22.125 18.804 18.8753 17.9686C14.346 16.8041 13.8016 11.2003 17.6815 9.15876C20.1818 7.84317 21.6999 9.10662 22.2344 8.78621C22.3197 8.73505 22.6256 8.45504 22.76 8.35118C22.9781 8.18259 23.0911 8.11353 23.2065 7.83786C22.6069 7.28582 20.7332 6.97786 19.6963 7.05601C11.0476 7.70772 11.4876 20.4061 21.2944 19.5234C22.6764 19.3989 23.7471 18.4896 24.3417 18.2336C24.6133 18.3758 25.1387 18.796 25.2783 19.0623C25.0183 19.3838 24.1051 19.9483 23.606 20.1496C18.1665 22.3437 12.3774 19.1688 12.1693 13.3557C12.0051 8.76231 16.6269 5.2025 21.417 5.8928C22.6693 6.07327 24.6764 6.87358 25.2546 7.64383L22.1635 10.3397C21.988 10.364 19.9688 9.17148 18.0233 10.478C15.0446 12.4783 16.6918 16.3796 19.4149 16.762C20.8016 16.9568 23.0502 16.2937 23.324 15.2885C23.1218 14.9836 23.0805 15.0293 22.8246 14.8036C22.5334 14.5466 22.617 14.5212 22.2582 14.3982C21.5338 14.8839 21.0214 15.4466 19.7091 15.2727C18.897 15.1649 18.0901 14.392 18.0534 13.4534C18.0102 12.3543 18.7201 11.6403 19.5286 11.4376C20.9107 11.0908 21.722 11.843 22.3531 12.1109C23.2738 11.5693 26.38 8.62517 27.5585 7.74448C27.4034 7.32818 26.3163 6.41226 25.8694 6.08249C25.2868 5.65291 24.4217 5.19383 23.6148 4.90265C21.3353 4.07955 19.979 4.19949 17.6933 4.56337C17.3101 3.99498 16.0513 2.84393 15.4887 2.27078C14.788 1.55435 13.9391 0.751243 13.2971 0H13.1338C11.402 1.89167 8.52248 4.71407 6.61322 6.65928L0 13.3995ZM10.7321 21.5754C11.1929 21.0056 12.5872 19.8338 12.8315 19.2968C13.1836 19.4167 13.0527 19.3562 13.3155 19.5934L14.3599 20.4545C14.758 20.7465 15.3531 21.0506 15.6926 21.6441L13.2602 24.0851C12.9495 23.95 12.7871 23.6797 12.5633 23.4511L10.7321 21.5754V21.5754ZM6.8297 17.6109C7.00498 17.2784 8.93244 15.35 9.28219 15.1029C9.42053 15.1644 11.7225 17.5112 11.7229 17.5118C11.6174 17.8309 9.47882 19.942 9.25715 20.0859L6.8297 17.6116V17.6109ZM2.86806 13.5468C3.23669 13.1337 5.02813 11.202 5.43111 11.0496C6.16153 11.7146 7.13894 12.824 7.81409 13.5468C7.29097 14.107 5.80576 15.4769 5.43316 16.0441C5.07329 15.9241 3.23012 13.9522 2.86778 13.5468H2.86806ZM6.83626 9.48992L9.26043 7.00666C9.56844 7.2197 11.4213 9.09949 11.5625 9.38606C11.3047 10.1205 9.57351 11.8045 9.28191 11.9911C8.93257 11.7445 7.00457 9.81536 6.83626 9.48992V9.48992ZM10.7387 5.50893C11.1492 5.08857 12.9203 3.16238 13.2782 2.99029L15.5281 5.32202C15.304 5.54723 15.376 5.43498 15.1379 5.5935L14.0803 6.35285C13.0451 7.09011 13.3296 7.08816 12.7869 7.52822C12.4573 7.40535 10.9908 5.86218 10.7387 5.50893Z" fill="white" />
    <path fill-rule="evenodd" clip-rule="evenodd" d="M94.9999 19.3378V11.3522C94.7561 11.197 94.1606 11.08 93.7742 11.2013C93.3236 11.3427 93.5086 11.7745 93.441 12.2445C93.1784 11.7811 92.2916 11.2788 91.7489 11.1523C87.4011 10.1389 85.7478 16.717 89.1883 18.7114C91.02 19.7738 92.1621 18.9815 93.3216 18.2161C93.3749 19.7958 92.91 20.6194 91.5479 20.8452C89.5398 21.178 88.789 19.6954 88.4646 19.6409C88.1598 19.686 87.6523 20.1225 87.4695 20.3678C87.8812 21.7117 89.9291 22.4697 91.6852 22.2653C94.4426 21.9446 94.5807 20.2312 94.9999 19.3375V19.3378ZM90.7698 12.6662C92.0476 12.3366 93.3175 13.4393 93.3352 14.6061C93.3505 15.6115 93.524 17.3504 91.6716 17.6903C88.8136 18.2148 87.929 13.399 90.7698 12.6662Z" fill="white" />
    <path fill-rule="evenodd" clip-rule="evenodd" d="M35.8191 12.1681C36.6773 14.466 36.7715 12.2799 39.0053 12.4274C40.139 12.5019 40.5336 13.2231 40.5379 14.4341C39.3221 14.1797 38.2284 13.9705 37.0152 14.4863C33.8298 15.8409 35.7073 20.2896 39.378 19.0407C40.1765 18.7691 40.3457 18.4857 40.7457 18.2612C40.9492 19.2006 41.634 19.2602 42.6039 19.0529C42.5876 16.3844 42.3457 18.2636 42.2185 17.3206C42.2185 14.96 42.5889 12.8183 40.9861 11.6335C39.4559 10.5022 36.9941 11.2379 35.8195 12.1681H35.8191ZM40.5369 15.6391C40.5353 16.9658 40.4804 17.2178 39.4495 17.6555C36.6077 18.8619 35.3745 14.3658 40.5369 15.6391Z" fill="white" />
    <path fill-rule="evenodd" clip-rule="evenodd" d="M28.1728 19.018C28.4643 19.1204 29.3779 19.2035 29.6045 18.9217C29.8294 18.6561 29.7121 17.398 29.7121 17.0302C29.7121 15.3608 29.3729 13.1417 31.532 12.6667C34.3218 12.053 32.6491 17.839 33.2885 19.0172C33.579 19.1209 34.492 19.2023 34.7201 18.923C34.9527 18.6497 34.8278 16.8417 34.8278 16.4495C34.8278 14.3996 35.2709 11.0689 32.2974 11.0675C30.7189 11.0664 30.1081 11.9844 29.7113 12.2095L29.7057 8.30353C29.3101 8.15101 29.1296 8.20358 28.6039 8.20358C28.0045 8.20358 28.0645 8.41606 28.0725 8.99242C28.0958 10.6822 27.9618 18.6279 28.1728 19.018Z" fill="white" />
    <path fill-rule="evenodd" clip-rule="evenodd" d="M60.7021 11.8049V16.062C60.7021 18.8439 62.409 19.7665 64.6245 18.9985C65.3062 18.7624 65.729 18.3177 66.1168 17.9573C66.1204 19.2103 66.8507 19.2048 67.9596 19.0886C67.9433 17.3154 68.0425 17.8601 67.707 17.523C67.5714 17.3865 67.6325 17.5142 67.5681 17.3201L67.5692 12.3855C67.5778 11.233 67.8066 11.1816 66.4909 11.1816C65.7004 11.1816 65.8942 11.4612 65.8946 12.8696C65.8946 13.6116 65.8921 14.3537 65.8946 15.0956C65.898 15.9799 65.9751 16.2514 65.4325 16.8212C65.1032 17.1672 64.7455 17.5634 64.1043 17.6853C62.3692 18.0152 62.3723 16.4011 62.374 14.9985C62.375 14.2565 62.375 13.5147 62.374 12.7728C62.374 11.0212 62.5984 11.1816 61.2804 11.1816C60.7821 11.1813 60.7021 11.3109 60.7021 11.8049Z" fill="white" />
    <path fill-rule="evenodd" clip-rule="evenodd" d="M47.8317 12.2845C47.8317 11.4458 47.9708 11.1213 46.9758 11.1654C46.105 11.204 46.3054 11.4533 46.3054 13.1596C46.3054 13.6176 46.1959 18.7467 46.4098 18.9698L47.0719 19.0944C47.3345 19.0969 47.7026 19.1058 47.8327 18.9697C48.0373 18.7555 47.9333 15.2727 47.9337 14.9943C47.9351 13.7501 48.7324 12.9533 49.7432 12.6919C51.7968 12.1607 51.4204 15.1065 51.4204 16.9333L51.4131 18.4885C51.4412 19.0769 51.5552 19.1009 52.3846 19.0952C53.3033 19.0886 53.0529 19.0952 53.0529 16.6431C53.0529 14.6177 53.585 10.9965 50.5846 11.0654C49.2525 11.0952 48.5062 11.6695 47.8317 12.2845Z" fill="white" />
    <path fill-rule="evenodd" clip-rule="evenodd" d="M81.4516 12.2683L81.4275 11.2618C81.1789 11.1779 80.6575 11.1248 80.3031 11.1699C79.7803 11.2375 79.8981 11.3651 79.9106 11.9942L79.9159 17.8042C79.9151 17.9942 79.9054 18.2053 79.9085 18.3913L80.3224 19.0785L81.0802 19.0864C81.5742 19.0246 81.4805 18.8954 81.4805 18.8955L81.5587 17.0303C81.5587 15.4774 81.3261 14.2904 82.0872 13.5099C82.4179 13.1704 82.7547 12.844 83.3651 12.6891C85.6913 12.0993 84.921 16.3407 85.0245 18.4882C85.039 18.791 85.0483 18.9815 85.2785 19.0391L86.0089 19.095C86.9303 19.0845 86.6749 19.0194 86.6749 16.6432C86.6749 14.4832 87.1546 11.0128 84.2059 11.0645C82.9632 11.0863 82.0337 11.684 81.4516 12.2683Z" fill="white" />
    <path fill-rule="evenodd" clip-rule="evenodd" d="M54.1506 16.9409L53.498 18.0474C55.3351 19.4608 58.6998 19.8926 59.8117 17.9453C60.1889 17.2852 60.2284 16.2259 59.7433 15.608C58.7905 14.3958 56.0942 14.4708 55.6271 13.8035C55.0322 12.954 56.3862 11.8947 58.1603 12.6758C59.1124 13.0952 59.0215 13.6963 59.7877 12.506C59.977 12.2124 59.8503 12.4857 59.9713 12.1592C59.6781 12.0287 59.4493 11.7827 59.1129 11.598C58.0484 11.0134 56.5562 10.8787 55.4278 11.3372C54.034 11.9036 53.1666 14.1002 54.6648 15.0888C55.2561 15.479 56.1257 15.6561 56.8562 15.8487C57.605 16.0462 58.7351 16.2194 58.4456 17.123C58.2065 17.8698 57.163 17.9884 56.3348 17.8256C55.3847 17.6397 54.6974 16.9578 54.1506 16.9409Z" fill="white" />
    <path fill-rule="evenodd" clip-rule="evenodd" d="M72.8251 11.1861C71.999 11.1707 71.8789 11.063 71.8789 11.9986C71.8789 12.7624 72.1617 12.6222 72.8684 12.611C72.8622 14.0198 72.8716 15.4291 72.8664 16.838C72.8617 18.123 72.9888 19.2021 74.8259 19.2021C75.622 19.2021 76.1488 18.8654 76.7783 18.6878C76.7253 18.4346 76.676 18.2544 76.6083 18.0159L76.4611 17.5858C76.1314 16.9184 75.6598 17.9697 74.6335 17.4231C74.443 16.3581 74.5045 13.7612 74.5674 12.6142C76.2064 12.6646 76.1684 12.7268 76.1684 11.8044C76.1684 11.0226 75.8645 11.1492 74.5734 11.1878C74.489 10.4307 74.6954 9.38559 74.474 8.77609C74.4233 8.75582 72.9568 8.36273 72.8629 9.10293C72.785 9.72179 72.947 10.5245 72.8251 11.1861Z" fill="white" />
    <path fill-rule="evenodd" clip-rule="evenodd" d="M72.3711 18.8719C72.3565 18.4509 72.2789 17.8279 72.0737 17.52L70.8995 17.609C70.4321 17.0283 70.6004 16.3031 70.6004 15.3856V10.2568C70.6004 8.05145 70.833 8.2034 69.5217 8.2034C68.7023 8.2034 68.9222 8.69002 68.9262 9.4825V15.2885C68.9265 18.4352 68.6494 19.7876 72.3711 18.8719Z" fill="white" />
    <path fill-rule="evenodd" clip-rule="evenodd" d="M77.5722 19.0841C79.0593 19.0841 78.7164 19.5445 78.7164 14.9984C78.7164 14.2243 78.7164 13.4502 78.7164 12.6761C78.7179 11.5469 79.0135 11.172 77.8566 11.1701C76.8675 11.1686 77.0341 11.0839 77.0349 12.6761V17.3204C77.0349 18.1402 76.7538 19.0841 77.5722 19.0841Z" fill="white" />
    <path fill-rule="evenodd" clip-rule="evenodd" d="M44.0426 19.0836C44.9741 19.0836 45.0947 19.1852 45.0947 18.5784V11.7082C45.0947 11.0848 44.7726 11.1811 44.0426 11.1811C43.2824 11.1811 43.463 11.1648 43.4633 12.8694L43.4522 18.4921C43.4585 19.0563 43.4913 19.0836 44.0426 19.0836Z" fill="white" />
    <path fill-rule="evenodd" clip-rule="evenodd" d="M77.1433 10.0161C77.4342 10.4512 78.5615 10.2079 78.6426 10.0982L78.672 8.26763C78.3299 8.16642 77.2481 8.07429 77.0763 8.39092C76.9366 8.64856 76.96 9.81624 77.1433 10.0161Z" fill="white" />
    <path fill-rule="evenodd" clip-rule="evenodd" d="M44.0426 10.2206C45.3335 10.2206 45.1024 10.2453 45.0988 9.29001C45.095 8.24157 45.2304 8.20312 44.0426 8.20312C43.2763 8.20312 43.4582 8.40485 43.4599 9.19159C43.4619 9.99414 43.2415 10.2206 44.0426 10.2206Z" fill="white" />
</svg>