<svg version="1.2" baseProfile="tiny-ps" xmlns="http://www.w3.org/2000/svg" viewBox="0 0 544 512" width="544" height="512">
	<path fill="currentColor" d="M527.7 288L290.5 288L447.6 446C453.72 452.12 463.59 452.48 469.84 446.73C508.46 410.23 535.09 361.11 542.96 305.83C545.2 296.4 537.4 288 527.7 288ZM511.1 223.2C502.85 103.7 407.4 9.1 287.9 0C278.78 -0.62 271.14 7.11 271.14 16.24L272 240L495.7 240C504.9 240 512.6 232.4 511.1 223.2ZM224 288L224 50.75C224 41.13 215.63 33.27 206.13 34.64C87 51.52 -4.11 155.6 0.14 280.4C4.51 408.5 114.94 513.6 243.04 512C293.41 511.38 340.04 495.12 378.24 468C386.24 462.38 386.73 450.76 379.85 443.89L224 288Z" />
</svg>
