<svg aria-hidden="true" focusable="false" data-prefix="fas" data-icon="circle-info"  width="22" height="22" viewBox="0 0 22 22" fill="none" xmlns="http://www.w3.org/2000/svg">
    <path d="M10.5 15C10.5 15.2761 10.7239 15.5 11 15.5C11.2761 15.5 11.5 15.2761 11.5 15H10.5ZM11.5 11C11.5 10.7239 11.2761 10.5 11 10.5C10.7239 10.5 10.5 10.7239 10.5 11H11.5ZM20.5 11C20.5 16.2467 16.2467 20.5 11 20.5V21.5C16.799 21.5 21.5 16.799 21.5 11H20.5ZM11 20.5C5.75329 20.5 1.5 16.2467 1.5 11H0.5C0.5 16.799 5.20101 21.5 11 21.5V20.5ZM1.5 11C1.5 5.75329 5.75329 1.5 11 1.5V0.5C5.20101 0.5 0.5 5.20101 0.5 11H1.5ZM11 1.5C16.2467 1.5 20.5 5.75329 20.5 11H21.5C21.5 5.20101 16.799 0.5 11 0.5V1.5ZM11.5 15V11H10.5V15H11.5ZM11.5 7C11.5 7.27614 11.2761 7.5 11 7.5V8.5C11.8284 8.5 12.5 7.82843 12.5 7H11.5ZM11 7.5C10.7239 7.5 10.5 7.27614 10.5 7H9.5C9.5 7.82843 10.1716 8.5 11 8.5V7.5ZM10.5 7C10.5 6.72386 10.7239 6.5 11 6.5V5.5C10.1716 5.5 9.5 6.17157 9.5 7H10.5ZM11 6.5C11.2761 6.5 11.5 6.72386 11.5 7H12.5C12.5 6.17157 11.8284 5.5 11 5.5V6.5Z" fill="white"/>
    </svg>
    