<svg width="24" height="24" viewBox="0 0 24 24" fill="none" xmlns="http://www.w3.org/2000/svg" focusable="false" data-prefix="fas" data-icon="clock" class="svg-inline--fa fa-clock">
<path d="M12.0007 0.333374C5.58398 0.333374 0.333984 5.58337 0.333984 12C0.333984 18.4167 5.58398 23.6667 12.0007 23.6667C18.4173 23.6667 23.6673 18.4167 23.6673 12C23.6673 5.58337 18.4173 0.333374 12.0007 0.333374ZM13.1673 12C13.1673 12.4667 12.934 12.8167 12.584 13.05L9.55065 14.8C8.96732 15.15 8.26732 14.9167 7.91732 14.3334C7.56732 13.75 7.80065 13.05 8.38398 12.7L10.834 11.3V6.16671C10.834 5.46671 11.3007 5.00004 12.0007 5.00004C12.7007 5.00004 13.1673 5.46671 13.1673 6.16671V12Z" fill="currentColor"/>
</svg>
