<svg width="28" height="28" viewBox="0 0 20 20" fill="none" xmlns="http://www.w3.org/2000/svg">
    <path fill-rule="evenodd" clip-rule="evenodd" d="M16.1332 3.81283C14.4923 2.18628 12.2725 1.27815 9.96204 1.28822C8.23899 1.29573 6.55687 1.81402 5.12838 2.77754C3.6999 3.74107 2.58922 5.10655 1.9368 6.70132C1.28437 8.29609 1.11951 10.0485 1.46306 11.737C1.8066 13.4255 2.64313 14.9741 3.86685 16.1872C5.09057 17.4002 6.64652 18.2231 8.33794 18.5518C10.0294 18.8806 11.7803 18.7004 13.3692 18.034C14.9582 17.3676 16.3139 16.245 17.2649 14.8081C18.2159 13.3712 18.7194 11.6846 18.7118 9.96157C18.7016 7.65114 17.774 5.43939 16.1332 3.81283ZM9.95643 9.50748e-05C12.6085 -0.0114615 15.1565 1.03094 17.04 2.898C18.9235 4.76506 19.9882 7.30384 19.9999 9.95589C20.0086 11.9337 19.4307 13.8697 18.3391 15.519C17.2475 17.1684 15.6914 18.457 13.8674 19.2219C12.0435 19.9868 10.0337 20.1937 8.09218 19.8163C6.15068 19.439 4.36466 18.4944 2.96 17.102C1.55535 15.7096 0.59513 13.9319 0.200785 11.9938C-0.193559 10.0557 -0.00432043 8.04415 0.74457 6.21358C1.49346 4.38301 2.76837 2.81562 4.40807 1.70963C6.04777 0.603636 7.97861 0.00871364 9.95643 9.50748e-05Z" fill="currentColor"></path>
    <path d="M14.3888 6.97596C13.761 6.79427 13.1101 6.53664 12.4512 6.2763C12.4132 6.11088 12.2668 5.90478 11.9705 5.65325C11.54 5.27969 10.7312 5.28918 10.0322 5.45461C9.26066 5.27291 8.49862 5.20851 7.7671 5.38681C1.78405 7.03495 5.17659 11.056 2.97998 15.098C3.29252 15.761 6.66134 19.6295 11.5359 18.5916C11.5359 18.5916 9.86879 14.5855 13.6308 12.6627C16.6824 11.0973 18.8871 8.20105 14.3888 6.97596Z" fill="currentColor"></path>
    <path d="M15.1282 9.60678C15.1287 9.67851 15.1078 9.74876 15.0683 9.80863C15.0287 9.8685 14.9723 9.9153 14.9062 9.94312C14.8401 9.97095 14.7672 9.97854 14.6968 9.96494C14.6263 9.95134 14.5615 9.91716 14.5105 9.86672C14.4595 9.81627 14.4246 9.75184 14.4102 9.68156C14.3958 9.61128 14.4026 9.53831 14.4297 9.47189C14.4567 9.40546 14.5029 9.34855 14.5623 9.30836C14.6218 9.26817 14.6918 9.2465 14.7635 9.2461C14.8111 9.24583 14.8584 9.25495 14.9025 9.27293C14.9466 9.29091 14.9867 9.3174 15.0206 9.35089C15.0544 9.38439 15.0814 9.42422 15.0999 9.46813C15.1183 9.51203 15.128 9.55914 15.1282 9.60678Z" fill="#a873F7"></path>
    <path d="M10.0327 5.45163C10.4686 5.48281 12.0449 5.994 12.4517 6.27332C12.1127 5.29027 10.9717 5.15942 10.0327 5.45163Z" fill="currentColor"></path>
    <path d="M10.447 7.93817C10.4472 8.26914 10.3491 8.59271 10.1654 8.86796C9.98157 9.14322 9.72028 9.35778 9.41454 9.48452C9.1088 9.61126 8.77234 9.64448 8.44772 9.57998C8.1231 9.51548 7.82489 9.35616 7.59083 9.12216C7.35677 8.88816 7.19736 8.59 7.13276 8.2654C7.06817 7.94079 7.10129 7.60432 7.22795 7.29855C7.3546 6.99277 7.56909 6.73142 7.84429 6.54756C8.11949 6.3637 8.44304 6.26558 8.77401 6.26563C9.21762 6.26568 9.64306 6.44189 9.95678 6.75553C10.2705 7.06917 10.4468 7.49455 10.447 7.93817Z" fill="#a873F7"></path>
    <path d="M9.95107 7.95234C9.95107 8.18512 9.88204 8.41267 9.75271 8.60622C9.62339 8.79977 9.43958 8.95062 9.22452 9.0397C9.00946 9.12878 8.77281 9.15209 8.54451 9.10667C8.3162 9.06126 8.10649 8.94917 7.94189 8.78457C7.77729 8.61997 7.6652 8.41026 7.61978 8.18195C7.57437 7.95364 7.59768 7.717 7.68676 7.50194C7.77584 7.28688 7.92669 7.10307 8.12024 6.97374C8.31379 6.84442 8.54134 6.77539 8.77412 6.77539C9.08626 6.77539 9.38563 6.89939 9.60635 7.12011C9.82707 7.34083 9.95107 7.64019 9.95107 7.95234Z" fill="currentColor"></path>
    <path d="M16.4836 10.344C15.1277 11.2992 13.586 12.024 11.3989 12.024C10.3751 12.024 10.1677 10.9392 9.49106 11.4694C9.1419 11.7447 7.91072 12.3603 6.93377 12.3135C5.95682 12.2667 4.37309 11.6938 3.93173 9.6084C3.75682 11.6938 3.66733 13.2301 2.88428 14.9908C4.4436 17.4877 8.16156 19.4138 11.5365 18.584C11.1738 16.0518 13.3866 13.5718 14.6334 12.3026C15.108 11.822 16.0097 11.0376 16.4836 10.3426V10.344Z" fill="currentColor"></path>
    <path d="M16.4304 10.4068C16.0094 10.7905 15.5084 11.0746 14.9986 11.3254C14.4825 11.5704 13.9446 11.7663 13.3918 11.9105C12.8386 12.0535 12.2616 12.1613 11.6772 12.1085C11.0928 12.0556 10.4955 11.8569 10.1084 11.419L10.1267 11.3979C10.6013 11.7057 11.1491 11.8142 11.6942 11.8298C12.2467 11.8466 12.7993 11.8011 13.3416 11.6942C13.8894 11.5795 14.4253 11.4138 14.9423 11.1993C15.4596 10.9857 15.9714 10.7383 16.4121 10.3857L16.4304 10.4068Z" fill="#a873F7"></path>
</svg>