<svg version="1.2" baseProfile="tiny-ps" xmlns="http://www.w3.org/2000/svg" viewBox="0 0 512 384" width="512" height="384">
	<path fill="currentColor" d="M303.2 271.7L512 109.2L512 336C512 362.51 490.51 384 464 384L48 384C21.49 384 0 362.5 0 336L0 109.2L208.84 271.59C222.94 282.58 239.47 288 256 288C272.5 288 289.1 282.6 303.2 271.7ZM0 48C0 21.49 21.49 0 48 0L464 0C490.5 0 512 21.49 512 48C512 61 505.1 73.3 495.75 81.3L283.55 246.4C267.36 259 244.68 259 228.49 246.4L16.29 81.3C6.01 73.3 0 61 0 48Z" />
</svg>
