<svg version="1.2" baseProfile="tiny-ps" xmlns="http://www.w3.org/2000/svg" viewBox="0 0 481 480" width="481" height="480">
	<path fill="currentColor" d="M121.07 144L21.1 144C49.08 80.01 104.1 30.6 171.8 10.24C148.6 41.44 130.7 88.1 121.07 144ZM148.6 176L333.42 176C335.77 196.14 337.05 217.45 337.05 240C337.05 262.55 335.77 283.86 333.42 304L148.62 304C146.28 283.86 145 262.55 145 240C145 217.5 146.3 196.1 148.6 176ZM153.4 144C169.7 55.96 206.83 0 241.03 0C275.23 0 312.35 55.96 328.6 144L153.4 144ZM360.9 144C351.3 88.1 333.4 41.44 310.2 10.2C377.9 30.6 432.92 80.01 460.9 144L360.9 144ZM360.93 336L460.9 336C432.9 399.1 377.9 449.4 310.2 469.8C333.4 438.6 351.3 391.9 360.93 336ZM480.99 240C480.99 262.2 477.74 283.6 472.1 304L365.5 304C367.75 283.5 368.98 262.16 368.98 240C368.98 217.84 367.75 196.5 365.5 176L472.1 176C477.7 196.4 480.99 217.8 480.99 240ZM328.54 336C312.29 424.04 275.17 480 240.97 480C206.77 480 169.65 424.04 153.4 336L328.54 336ZM116.5 304L9.89 304C4.25 283.6 0.99 262.2 0.99 240C0.99 217.8 4.25 196.4 9.89 176L116.48 176C114.24 196.5 113 217.84 113 240C113 262.2 114.2 283.5 116.5 304ZM121.1 336C130.7 391.9 148.6 438.6 171.8 469.8C103.2 449.4 49.08 399.99 21.1 336L121.1 336Z" />
</svg>
