<svg width="24" height="25" viewBox="0 0 24 18" fill="none" xmlns="http://www.w3.org/2000/svg">
<path focusable="false" data-prefix="fas" data-icon="clock" class="svg-inline--fa fa-clock" d="M13.1785 8.99903C13.1785 9.22978 13.1101 9.45534 12.9819 9.6472C12.8537 9.83906 12.6715 9.98859 12.4583 10.0769C12.2451 10.1652 12.0105 10.1883 11.7842 10.1433C11.5579 10.0983 11.35 9.98715 11.1869 9.82399C11.0237 9.66083 10.9126 9.45295 10.8676 9.22664C10.8226 9.00033 10.8457 8.76575 10.934 8.55257C11.0223 8.33939 11.1718 8.15718 11.3637 8.02899C11.5555 7.90079 11.7811 7.83237 12.0118 7.83237C12.3213 7.83237 12.618 7.95528 12.8368 8.17408C13.0556 8.39287 13.1785 8.68961 13.1785 8.99903ZM20.2368 0.750699C20.1281 0.641921 19.9989 0.555634 19.8568 0.496763C19.7147 0.437893 19.5623 0.407593 19.4085 0.407593C19.2547 0.407593 19.1023 0.437893 18.9602 0.496763C18.8181 0.555634 18.6889 0.641921 18.5802 0.750699C18.4714 0.859478 18.3851 0.988616 18.3262 1.13074C18.2674 1.27287 18.2371 1.4252 18.2371 1.57903C18.2371 1.73287 18.2674 1.8852 18.3262 2.02732C18.3851 2.16945 18.4714 2.29859 18.5802 2.40737C20.3256 4.15705 21.3058 6.5276 21.3058 8.99903C21.3058 11.4705 20.3256 13.841 18.5802 15.5907C18.4708 15.6992 18.384 15.8282 18.3248 15.9704C18.2656 16.1125 18.2351 16.265 18.2351 16.419C18.2351 16.573 18.2656 16.7255 18.3248 16.8677C18.384 17.0099 18.4708 17.1389 18.5802 17.2474C18.6886 17.3567 18.8177 17.4435 18.9598 17.5027C19.102 17.562 19.2545 17.5925 19.4085 17.5925C19.5625 17.5925 19.715 17.562 19.8572 17.5027C19.9993 17.4435 20.1284 17.3567 20.2368 17.2474C22.424 15.0595 23.6527 12.0926 23.6527 8.99903C23.6527 5.90545 22.424 2.93852 20.2368 0.750699ZM2.6785 8.99903C2.67482 7.77329 2.91537 6.5591 3.3861 5.42734C3.85683 4.29559 4.54831 3.26895 5.42016 2.40737C5.63985 2.18768 5.76327 1.88972 5.76327 1.57903C5.76327 1.26835 5.63985 0.970387 5.42016 0.750699C5.20048 0.531012 4.90252 0.407593 4.59183 0.407593C4.28115 0.407593 3.98319 0.531012 3.7635 0.750699C1.57634 2.93852 0.347656 5.90545 0.347656 8.99903C0.347656 12.0926 1.57634 15.0595 3.7635 17.2474C3.87195 17.3567 4.00099 17.4435 4.14316 17.5027C4.28533 17.562 4.43782 17.5925 4.59183 17.5925C4.74584 17.5925 4.89833 17.562 5.0405 17.5027C5.18267 17.4435 5.31171 17.3567 5.42016 17.2474C5.52951 17.1389 5.61631 17.0099 5.67554 16.8677C5.73477 16.7255 5.76526 16.573 5.76526 16.419C5.76526 16.265 5.73477 16.1125 5.67554 15.9704C5.61631 15.8282 5.52951 15.6992 5.42016 15.5907C4.54831 14.7291 3.85683 13.7025 3.3861 12.5707C2.91537 11.439 2.67482 10.2248 2.6785 8.99903ZM17.7752 3.22403C17.5506 3.03437 17.2628 2.93645 16.9692 2.94982C16.6756 2.9632 16.3979 3.0869 16.1915 3.29619C15.9852 3.50549 15.8654 3.78495 15.8562 4.07871C15.847 4.37247 15.949 4.65889 16.1418 4.8807C17.2318 5.97413 17.8439 7.4551 17.8439 8.99903C17.8439 10.543 17.2318 12.0239 16.1418 13.1174C15.978 13.2798 15.866 13.4873 15.8201 13.7134C15.7741 13.9395 15.7963 14.1742 15.8837 14.3877C15.9711 14.6012 16.1199 14.7841 16.3112 14.913C16.5025 15.042 16.7278 15.1114 16.9585 15.1124C17.2646 15.1111 17.5579 14.9896 17.7752 14.774C18.5336 14.0157 19.1352 13.1154 19.5457 12.1245C19.9562 11.1336 20.1674 10.0716 20.1674 8.99903C20.1674 7.9265 19.9562 6.86447 19.5457 5.87359C19.1352 4.88271 18.5336 3.98239 17.7752 3.22403ZM6.1785 8.99903C6.17883 7.45492 6.79136 5.97393 7.88183 4.8807C8.00464 4.77696 8.10469 4.64896 8.17569 4.50473C8.24669 4.3605 8.28712 4.20315 8.29444 4.04256C8.30175 3.88196 8.2758 3.72159 8.21821 3.5715C8.16062 3.42141 8.07263 3.28484 7.95977 3.17036C7.8469 3.05589 7.71159 2.96597 7.56234 2.90626C7.41308 2.84654 7.25309 2.81832 7.09241 2.82336C6.93173 2.8284 6.77382 2.86659 6.6286 2.93554C6.48337 3.00449 6.35397 3.10271 6.2485 3.22403C5.49006 3.98239 4.88844 4.88271 4.47797 5.87359C4.06751 6.86447 3.85624 7.9265 3.85624 8.99903C3.85624 10.0716 4.06751 11.1336 4.47797 12.1245C4.88844 13.1154 5.49006 14.0157 6.2485 14.774C6.46709 14.9913 6.76278 15.1133 7.071 15.1133C7.37921 15.1133 7.67491 14.9913 7.8935 14.774C8.11079 14.5554 8.23276 14.2598 8.23276 13.9515C8.23276 13.6433 8.11079 13.3476 7.8935 13.129C7.35004 12.5873 6.91881 11.9436 6.62452 11.2349C6.33023 10.5262 6.17866 9.76641 6.1785 8.99903ZM10.3668 5.69737C10.2584 5.58802 10.1293 5.50122 9.98717 5.44199C9.845 5.38276 9.69251 5.35227 9.5385 5.35227C9.38448 5.35227 9.23199 5.38276 9.08983 5.44199C8.94766 5.50122 8.81862 5.58802 8.71017 5.69737C8.27627 6.13077 7.93207 6.64545 7.69722 7.21198C7.46237 7.7785 7.34149 8.38576 7.34149 8.99903C7.34149 9.61231 7.46237 10.2196 7.69722 10.7861C7.93207 11.3526 8.27627 11.8673 8.71017 12.3007C8.81862 12.4101 8.94766 12.4968 9.08983 12.5561C9.23199 12.6153 9.38448 12.6458 9.5385 12.6458C9.69251 12.6458 9.845 12.6153 9.98717 12.5561C10.1293 12.4968 10.2584 12.4101 10.3668 12.3007C10.4762 12.1922 10.563 12.0632 10.6222 11.921C10.6814 11.7789 10.7119 11.6264 10.7119 11.4724C10.7119 11.3184 10.6814 11.1659 10.6222 11.0237C10.563 10.8815 10.4762 10.7525 10.3668 10.644C9.93225 10.2069 9.68831 9.61547 9.68831 8.99903C9.68831 8.3826 9.93225 7.79121 10.3668 7.35403C10.4762 7.24558 10.563 7.11654 10.6222 6.97437C10.6814 6.8322 10.7119 6.67971 10.7119 6.5257C10.7119 6.37169 10.6814 6.2192 10.6222 6.07703C10.563 5.93486 10.4762 5.80582 10.3668 5.69737ZM15.3135 5.69737C15.0938 5.47768 14.7958 5.35426 14.4852 5.35426C14.1745 5.35426 13.8765 5.47768 13.6568 5.69737C13.4371 5.91705 13.3137 6.21501 13.3137 6.5257C13.3137 6.83639 13.4371 7.13435 13.6568 7.35403C14.0914 7.79121 14.3353 8.3826 14.3353 8.99903C14.3353 9.61547 14.0914 10.2069 13.6568 10.644C13.5475 10.7525 13.4607 10.8815 13.4015 11.0237C13.3422 11.1659 13.3117 11.3184 13.3117 11.4724C13.3117 11.6264 13.3422 11.7789 13.4015 11.921C13.4607 12.0632 13.5475 12.1922 13.6568 12.3007C13.7653 12.4101 13.8943 12.4968 14.0365 12.5561C14.1787 12.6153 14.3312 12.6458 14.4852 12.6458C14.6392 12.6458 14.7917 12.6153 14.9338 12.5561C15.076 12.4968 15.205 12.4101 15.3135 12.3007C15.7474 11.8673 16.0916 11.3526 16.3264 10.7861C16.5613 10.2196 16.6822 9.61231 16.6822 8.99903C16.6822 8.38576 16.5613 7.7785 16.3264 7.21198C16.0916 6.64545 15.7474 6.13077 15.3135 5.69737Z"  fill="currentColor"/>
</svg>
