<svg width="16" height="21" viewBox="0 0 16 21" fill="none" aria-hidden="true" focusable="false" data-prefix="fas" data-icon="lock" class="svg-inline--fa fa-lock" role="img" xmlns="http://www.w3.org/2000/svg">
<path d="M13 7.5V5.5C13 2.7 10.8 0.5 8 0.5C5.2 0.5 3 2.7 3 5.5V7.5C1.3 7.5 0 8.8 0 10.5V17.5C0 19.2 1.3 20.5 3 20.5H13C14.7 20.5 16 19.2 16 17.5V10.5C16 8.8 14.7 7.5 13 7.5ZM5 5.5C5 3.8 6.3 2.5 8 2.5C9.7 2.5 11 3.8 11 5.5V7.5H5V5.5ZM9 15.5C9 16.1 8.6 16.5 8 16.5C7.4 16.5 7 16.1 7 15.5V12.5C7 11.9 7.4 11.5 8 11.5C8.6 11.5 9 11.9 9 12.5V15.5Z" fill="#0FB871"/>
</svg>
