<svg id="svg" xmlns="http://www.w3.org/2000/svg" xmlns:xlink="http://www.w3.org/1999/xlink" width="400" height="400" viewBox="0, 0, 400,400"><g id="svgg"><path id="path0" d="M23.516 5.540 C 13.756 10.371,5.920 19.912,2.616 30.989 C -0.718 42.162,-1.338 350.917,1.941 366.211 C 7.920 394.089,42.983 408.223,65.902 391.993 C 73.969 386.280,163.317 256.501,163.477 250.263 C 163.585 246.042,155.665 241.043,152.062 243.059 C 150.525 243.919,130.790 260.583,108.207 280.089 C 85.625 299.596,65.840 315.556,64.241 315.556 C 60.831 315.556,58.829 92.362,62.191 87.111 C 64.900 82.881,62.495 80.134,195.546 239.458 C 338.188 410.266,326.231 398.222,353.171 398.222 C 378.299 398.222,393.522 387.366,398.059 366.211 C 400.764 353.596,400.764 46.404,398.059 33.789 C 393.620 13.091,377.485 1.145,355.255 2.096 C 333.182 3.041,333.328 2.888,281.333 79.913 C 236.497 146.334,233.037 152.718,239.883 156.382 C 245.582 159.432,245.494 159.494,289.946 120.889 C 313.589 100.356,334.029 83.556,335.369 83.556 C 338.548 83.556,338.144 313.064,334.963 314.124 C 333.904 314.476,278.713 249.743,212.317 170.272 C 78.427 10.015,78.362 9.940,69.003 5.165 C 59.221 0.174,33.934 0.383,23.516 5.540 " stroke="none" fill="currentColor" fill-rule="evenodd"></path></g></svg>
