<svg width="28" height="28" viewBox="0 0 28 28" fill="none" xmlns="http://www.w3.org/2000/svg">
<path d="M16.3239 15.6007C18.767 15.6007 20.7544 13.615 20.7544 11.1744C20.7544 8.7338 18.7669 6.74811 16.3239 6.74811C13.8833 6.74811 11.8976 8.7338 11.8976 11.1744C11.8976 13.615 13.8833 15.6007 16.3239 15.6007ZM16.3239 7.46258C18.3731 7.46258 20.0399 9.12765 20.0399 11.1744C20.0399 13.2211 18.3731 14.8862 16.3239 14.8862C14.2772 14.8862 12.6121 13.2211 12.6121 11.1744C12.6121 9.12765 14.2772 7.46258 16.3239 7.46258ZM16.8409 11.9782C16.8409 11.7319 16.6407 11.5316 16.3944 11.5316H16.2576C15.6175 11.5316 15.0966 11.0108 15.0966 10.3706C15.0966 9.83025 15.4694 9.37885 15.9702 9.25002V9.00415C15.9702 8.80668 16.1299 8.64691 16.3274 8.64691C16.5249 8.64691 16.6846 8.80668 16.6846 9.00415V9.20963H17.1981C17.3956 9.20963 17.5554 9.36939 17.5554 9.56686C17.5554 9.76433 17.3956 9.92409 17.1981 9.92409H16.2576C16.0113 9.92409 15.8111 10.1243 15.8111 10.3706C15.8111 10.6169 16.0113 10.8172 16.2576 10.8172C16.2216 10.8172 16.3584 10.8172 16.3944 10.8172C17.0345 10.8172 17.5554 11.338 17.5554 11.9782C17.5554 12.5178 17.1839 12.9685 16.6846 13.0983V13.3446C16.6846 13.5421 16.5249 13.7019 16.3274 13.7019C16.1299 13.7019 15.9702 13.5421 15.9702 13.3446V13.1395H15.4539C15.2564 13.1395 15.0966 12.9798 15.0966 12.7823C15.0966 12.5848 15.2564 12.425 15.4539 12.425H16.3944C16.6407 12.425 16.8409 12.2244 16.8409 11.9782ZM15.9688 5.77203V3.35723C15.9688 3.15976 16.1285 3 16.326 3C16.5235 3 16.6832 3.15976 16.6832 3.35723V5.77199C16.6832 5.96946 16.5235 6.12922 16.326 6.12922C16.1285 6.12922 15.9688 5.96946 15.9688 5.77203ZM13.6429 6.48368V4.69055C13.6429 4.49308 13.8027 4.33332 14.0002 4.33332C14.1977 4.33332 14.3574 4.49308 14.3574 4.69055V6.48368C14.3574 6.68115 14.1977 6.84091 14.0002 6.84091C13.8027 6.84091 13.6429 6.68115 13.6429 6.48368ZM18.2946 6.48368V4.69055C18.2946 4.49308 18.4543 4.33332 18.6518 4.33332C18.8493 4.33332 19.0091 4.49308 19.0091 4.69055V6.48368C19.0091 6.68115 18.8493 6.84091 18.6518 6.84091C18.4543 6.84091 18.2946 6.68115 18.2946 6.48368ZM23.6282 15.0261C22.8698 14.4013 21.75 14.4292 21.0237 15.091L18.6288 17.2738C18.2687 16.8025 17.7225 16.5286 17.1266 16.5286H14.5612C14.2416 16.5286 13.9329 16.4742 13.643 16.3664C12.9139 16.096 11.4738 15.7318 10.0233 16.3304C9.74522 16.4452 9.46823 16.6168 9.20066 16.8405L6.70662 18.9238C6.3084 18.7115 5.78235 18.7646 5.45464 19.0923L4.30829 20.2387C3.89642 20.6505 3.89806 21.317 4.30829 21.7265L8.13592 25.5548C8.54533 25.9635 9.21271 25.9649 9.62376 25.5545L10.7708 24.4078C11.1803 23.9975 11.1803 23.3302 10.7704 22.9199L10.7543 22.9038L11.0101 22.6478C11.525 22.1333 12.2199 21.8601 12.9148 21.9093C14.612 22.0188 16.3315 21.8842 18.0256 21.5053C18.6217 21.372 19.1663 21.072 19.6003 20.6381L23.7014 16.5376C24.1273 16.1104 24.0929 15.4082 23.6282 15.0261ZM10.2654 23.9027L9.11868 25.0491C8.98681 25.1809 8.77296 25.1806 8.64108 25.0494L4.81345 21.2214C4.81345 21.2214 4.81345 21.2214 4.81345 21.2211C4.68176 21.0901 4.68162 20.8757 4.81345 20.7438L5.95981 19.5975C6.09095 19.4663 6.30421 19.4643 6.43741 19.5975C10.5054 23.6754 9.99869 23.1588 10.265 23.4251C10.3969 23.5566 10.3969 23.7712 10.2654 23.9027ZM23.196 16.0325L19.0952 20.1329C18.7571 20.471 18.3333 20.7044 17.8697 20.8083C16.2423 21.1718 14.5908 21.3034 12.9616 21.1963C12.0637 21.1408 11.1654 21.482 10.505 22.1427L10.2491 22.3986C6.15564 18.2764 7.56747 19.6981 7.26205 19.3906L9.6587 17.3888C9.87045 17.2116 10.0847 17.078 10.2957 16.9908C11.5209 16.4857 12.7628 16.8021 13.3942 17.0362C13.7636 17.1733 14.1564 17.243 14.5611 17.243H17.1266C17.7811 17.243 18.2993 17.7745 18.2949 18.4166C18.2935 18.6001 18.1404 18.7494 17.9534 18.7494H12.1865C11.989 18.7494 11.8293 18.9092 11.8293 19.1066C11.8293 19.3041 11.989 19.4639 12.1865 19.4639H17.9534C18.5315 19.4639 19.0052 18.9964 19.0094 18.4218C19.0104 18.2592 18.9909 18.0995 18.9518 17.9456L21.5051 15.6191C21.9705 15.1949 22.6884 15.1782 23.174 15.5773C23.3156 15.6941 23.3232 15.9053 23.196 16.0325Z" fill="white"/>
<path d="M12.5 13L20 9.5" stroke="white" stroke-width="0.5"/>
</svg>
