<svg version="1.2" baseProfile="tiny-ps" xmlns="http://www.w3.org/2000/svg" viewBox="0 0 416 416" width="416" height="416">
	<path fill="currentColor" d="M416 208C416 225.69 401.67 240.01 384 240.01L240 240.01L240 384.01C240 401.7 225.67 416 208 416C190.33 416 176 401.7 176 384.01L176 240.01L32 240.01C14.33 240.01 0 225.69 0 208C0 190.31 14.33 176.01 32 176.01L176 176.01L176 32.01C176 14.32 190.33 0 208 0C225.67 0 240 14.32 240 32.01L240 176.01L384 176.01C401.7 176 416 190.3 416 208Z" />
</svg>
