<svg version="1.2" baseProfile="tiny-ps" xmlns="http://www.w3.org/2000/svg" viewBox="0 0 512 448" width="512" height="448">
	<path fill="currentColor" d="M128 32.03L128 254.24C128 271.01 113.67 285.34 96 285.34L32 285.34C14.33 285.34 0 271.91 0 254.24L0 31.14C0 14.36 14.33 0.04 32 0.04L96 0.04C113.7 0.04 128 14.36 128 32.03ZM512 255.89C512 282.4 490.52 303.87 464 303.87L317.45 303.87C340.21 341.77 351.97 384.74 351.97 399.89C351.97 423.48 333.46 448 302.5 448C239.4 448 276.2 371.9 194.32 305.49L178.02 292.46C166.23 283.04 160.18 269.09 160.11 255.1C160.08 255.08 160.11 255.1 160.11 255.1L160 95.1C160 80.9 167.1 66.63 179.2 57.57L213.34 31.98C241.03 11.22 274.7 0 309.31 0L368 0C394.5 0 416 21.47 416 47.98C416 51.61 415.5 55.12 414.75 57.67C434 63.92 448 81.78 448 103.1C448 113.1 445.3 121.6 440.86 128.81C463.13 132.98 480 152.43 480 175.9C480 188.4 475.1 199.7 467.3 208.2C492.2 209.9 512 230.5 512 255.89Z" />
</svg>
