<svg
width="34"
height="34"
viewBox="0 0 34 34"
fill="none"
xmlns="http://www.w3.org/2000/svg"
>
<path d="M22.8276 13.1626C23.6096 12.3806 24.3859 10.556 21.1276 12.7716C16.4979 15.9662 11.9349 18.9653 11.9349 18.9653C11.4651 19.1777 10.9573 19.293 10.442 19.3042C9.92659 19.3154 9.41426 19.2223 8.93577 19.0305C6.98077 18.444 4.69852 17.662 4.69852 17.662C4.69852 17.662 3.14019 16.6831 5.80777 15.6404C5.80777 15.6404 17.0859 11.0121 20.9973 9.38156C22.4961 8.72989 27.5805 6.64456 27.5805 6.64456C27.5805 6.64456 29.9279 5.73081 29.7324 7.94789C29.6673 8.86022 29.1459 12.0562 28.6246 15.5101C27.8412 20.399 26.994 25.7455 26.994 25.7455C26.994 25.7455 26.8637 27.2443 25.7559 27.505C24.5699 27.4849 23.4241 27.0724 22.4975 26.332C22.2369 26.1365 17.6086 23.2026 15.9129 21.7689C15.7404 21.652 15.6002 21.4935 15.5055 21.3079C15.4107 21.1223 15.3645 20.9158 15.371 20.7076C15.3775 20.4993 15.4365 20.2961 15.5427 20.1168C15.6488 19.9375 15.7986 19.788 15.978 19.6821C18.3297 17.5316 21.1333 14.8584 22.8276 13.1626Z" fill="#fff" />
</svg>
