<svg
width="34"
height="34"
viewBox="0 0 34 34"
fill="none"
xmlns="http://www.w3.org/2000/svg"
>
<path d="M31.1673 8.21672C30.1025 8.67869 28.9763 8.98408 27.824 9.12339C29.0397 8.39709 29.9508 7.25449 30.3882 5.90755C29.2457 6.58764 27.9951 7.06681 26.6907 7.32422C25.8188 6.3787 24.6577 5.74931 23.3895 5.53476C22.1214 5.32021 20.8179 5.53264 19.6835 6.13874C18.5491 6.74483 17.648 7.7103 17.1214 8.88374C16.5948 10.0572 16.4726 11.3722 16.774 12.6226C14.464 12.5057 12.2044 11.9042 10.1421 10.8572C8.07971 9.81014 6.26068 8.34095 4.80315 6.54505C4.29193 7.43779 4.0233 8.4488 4.02398 9.47755C4.02217 10.4329 4.25663 11.3739 4.70647 12.2168C5.15632 13.0596 5.80759 13.7781 6.60232 14.3084C5.67862 14.2833 4.77466 14.0354 3.96732 13.5859V13.6567C3.97424 14.9953 4.44331 16.2904 5.29518 17.323C6.14705 18.3556 7.32943 19.0622 8.64232 19.3234C8.13693 19.4772 7.61222 19.5583 7.08398 19.5642C6.71833 19.5599 6.35358 19.5268 5.99315 19.4651C6.36702 20.6165 7.09053 21.6228 8.06301 22.3439C9.03548 23.065 10.2086 23.4651 11.419 23.4884C9.37502 25.0967 6.85149 25.9744 4.25065 25.9817C3.77711 25.9833 3.30394 25.9549 2.83398 25.8967C5.48942 27.6112 8.58397 28.5214 11.7448 28.5176C13.926 28.5402 16.0899 28.128 18.1101 27.305C20.1302 26.482 21.9661 25.2647 23.5105 23.7243C25.0549 22.1838 26.2769 20.351 27.1051 18.333C27.9333 16.315 28.351 14.1522 28.334 11.9709C28.334 11.7301 28.334 11.4751 28.334 11.2201C29.4456 10.391 30.4044 9.37474 31.1673 8.21672Z" fill="white" />
</svg>
