<svg version="1.2" baseProfile="tiny-ps" xmlns="http://www.w3.org/2000/svg" viewBox="0 0 640 447" width="640" height="447">
	<path fill="currentColor" d="M383.1 383.11C383.1 418.46 354.44 447.12 319.1 447.12C283.76 447.12 255.1 418.46 255.1 383.11C255.1 347.76 283.75 319.1 319.1 319.1C355.3 319.1 383.1 347.76 383.1 383.11ZM510.5 232C523.8 243.7 525 263.9 513.3 277.19C506.96 284.34 498.14 288 489.3 288C481.8 288 474.2 285.4 468.1 280C427.3 243.88 374.6 224 320 224C265.4 224 212.8 243.9 171.9 280C158.7 291.7 138.5 290.4 126.7 277.2C115 263.9 116.3 243.7 129.5 231.13C182.1 184.7 249.75 159.1 320 159.1C390.3 159.1 457.9 185.6 510.5 232ZM631.09 169.96C624.81 176.52 616.41 179.8 608 179.8C600 179.8 592.1 176.8 585.8 170.9C513.1 101.97 419.6 64 320 64C220.4 64 125.1 101.1 54.16 170.89C41.38 183.07 21.13 182.73 8.91 169.95C-3.32 157.2 -2.91 136.95 9.84 124.7C93.69 44.28 203.8 0 320 0C436.2 0 546.3 44.28 630.2 124.7C642.9 136.1 643.3 157.2 631.09 169.96Z" />
</svg>
