<svg version="1.2" baseProfile="tiny-ps" xmlns="http://www.w3.org/2000/svg" viewBox="0 0 320 320" width="320" height="320">
	<path fill="currentColor" d="M310.6 265.4C323.1 277.9 323.1 298.15 310.6 310.65C304.4 316.9 296.2 320 288 320C279.8 320 271.62 316.88 265.38 310.63L160 205.3L54.63 310.6C48.38 316.9 40.19 320 32 320C23.81 320 15.63 316.9 9.38 310.6C-3.13 298.1 -3.13 277.85 9.38 265.35L114.77 159.95L9.38 54.6C-3.13 42.1 -3.13 21.85 9.38 9.35C21.88 -3.15 42.12 -3.15 54.62 9.35L160 114.8L265.4 9.4C277.9 -3.1 298.15 -3.1 310.65 9.4C323.15 21.9 323.15 42.15 310.65 54.65L205.25 160.05L310.6 265.4Z" />
</svg>
